<mxfile host="app.diagrams.net" modified="2022-11-24T12:42:16.852Z" agent="5.0 (Macintosh; Intel Mac OS X 10_15_7) AppleWebKit/537.36 (KHTML, like Gecko) Chrome/107.0.0.0 Safari/537.36" version="20.6.0" etag="ijB8IHaQxz_eEQzqhS8y" type="github">
  <diagram id="2k_c9eLfm2HTLdyXUo4h" name="Page-1">
    <mxGraphModel dx="1255" dy="871" grid="1" gridSize="10" guides="1" tooltips="1" connect="1" arrows="1" fold="1" page="1" pageScale="1" pageWidth="827" pageHeight="1169" math="0" shadow="0">
      <root>
        <mxCell id="0" />
        <mxCell id="1" parent="0" />
        <mxCell id="BKJ63QhoIdQZSpEji7tN-5" value="" style="edgeStyle=orthogonalEdgeStyle;rounded=0;orthogonalLoop=1;jettySize=auto;html=1;" edge="1" parent="1" source="BKJ63QhoIdQZSpEji7tN-1" target="BKJ63QhoIdQZSpEji7tN-4">
          <mxGeometry relative="1" as="geometry" />
        </mxCell>
        <mxCell id="BKJ63QhoIdQZSpEji7tN-1" value="One Components" style="rounded=0;whiteSpace=wrap;html=1;" vertex="1" parent="1">
          <mxGeometry x="260" y="150" width="120" height="60" as="geometry" />
        </mxCell>
        <mxCell id="BKJ63QhoIdQZSpEji7tN-4" value="Another Components" style="whiteSpace=wrap;html=1;rounded=0;" vertex="1" parent="1">
          <mxGeometry x="260" y="290" width="120" height="60" as="geometry" />
        </mxCell>
      </root>
    </mxGraphModel>
  </diagram>
</mxfile>
